# xmcd CD database file
#
# Track frame offsets:
#	150
#	17818
#	38116
#	52224
#	71926
#	88890
#	103353
#	119713
#	132698
#	147264
#	163378
#	176518
#	189548
#	203175
#	218746
#	236560
#	253135
#	269075
#	283845
#	300173
#	316035
#	333045
#
# Disc length: 4691 seconds
#
# Revision: 0
# Processed by: cddbd v1.5.2PL0 Copyright (c) Steve Scherf et al.
# Submitted via: CDex 1.70beta2
#
DISCID=64125116
DTITLE=Benito di Paula - Grandes Sucessos
DYEAR=2012
DGENRE=Blues
TTITLE0=Vai ficar na saudade
TTITLE1=Retalhos de cetim
TTITLE2=Charlie brown
TTITLE3=Além de tudo
TTITLE4=Tudo está no seu lugar
TTITLE5=Mulher brasileira
TTITLE6=Modificação
TTITLE7=Assobiar ou chupar cana
TTITLE8=Homem da montanha
TTITLE9=Se não for amor
TTITLE10=Maria baiana maria
TTITLE11=Amigo do sol, amigo da lua
TTITLE12=Sanfona branca
TTITLE13=Osso duro de roer
TTITLE14=Não precisa me perdoar
TTITLE15=Ah! como eu amei
TTITLE16=Não quero ver você triste
TTITLE17=Do jeito que a vida quer
TTITLE18=Menina
TTITLE19=Violão não se empresta a ninguém
TTITLE20=Jesus Cristo
TTITLE21=Azul da cor do mar
EXTD=YEAR: 2012
EXTT0=
EXTT1=
EXTT2=
EXTT3=
EXTT4=
EXTT5=
EXTT6=
EXTT7=
EXTT8=
EXTT9=
EXTT10=
EXTT11=
EXTT12=
EXTT13=
EXTT14=
EXTT15=
EXTT16=
EXTT17=
EXTT18=
EXTT19=
EXTT20=
EXTT21=
PLAYORDER=
